<svg xmlns="http://www.w3.org/2000/svg" width="256" height="256" viewBox="0 0 100 100"><rect width="100" height="100" rx="20" fill="#5a96d9"></rect><path d="M26.37 49.83Q26.37 42.69 29.26 37.29Q32.15 31.90 37.21 28.92Q42.27 25.95 48.47 25.95L48.47 25.95Q54.59 25.95 59.09 28.58Q63.60 31.22 65.81 35.21L65.81 35.21L65.81 26.71L73.63 26.71L73.63 73.29L65.81 73.29L65.81 64.62Q63.52 68.70 58.97 71.38Q54.42 74.06 48.38 74.06L48.38 74.06Q42.18 74.06 37.16 71.00Q32.15 67.94 29.26 62.41Q26.37 56.89 26.37 49.83L26.37 49.83ZM65.81 49.92Q65.81 44.65 63.69 40.74Q61.56 36.83 57.95 34.74Q54.33 32.66 50 32.66L50 32.66Q45.66 32.66 42.09 34.70Q38.52 36.74 36.40 40.65Q34.27 44.56 34.27 49.83L34.27 49.83Q34.27 55.19 36.40 59.14Q38.52 63.09 42.09 65.17Q45.66 67.26 50 67.26L50 67.26Q54.33 67.26 57.95 65.17Q61.56 63.09 63.69 59.14Q65.81 55.19 65.81 49.92L65.81 49.92Z" fill="#fff"></path></svg>