<svg xmlns="http://www.w3.org/2000/svg" width="256" height="256" viewBox="0 0 100 100"><rect width="100" height="100" rx="20" fill="#5a96d9"></rect><path d="M25.95 49.79Q25.95 42.73 28.88 37.29Q31.81 31.85 36.87 28.84Q41.92 25.82 48.05 25.82L48.05 25.82Q53.57 25.82 57.69 27.98Q61.81 30.15 64.28 33.38L64.28 33.38L64.28 26.58L74.06 26.58L74.06 73.42L64.28 73.42L64.28 66.45Q61.81 69.76 57.56 71.97Q53.31 74.18 47.88 74.18L47.88 74.18Q41.84 74.18 36.83 71.08Q31.81 67.98 28.88 62.41Q25.95 56.84 25.95 49.79L25.95 49.79ZM64.28 49.96Q64.28 45.11 62.28 41.54Q60.28 37.97 57.06 36.10Q53.83 34.23 50.09 34.23L50.09 34.23Q46.34 34.23 43.12 36.06Q39.89 37.89 37.89 41.41Q35.89 44.94 35.89 49.79L35.89 49.79Q35.89 54.63 37.89 58.29Q39.89 61.94 43.16 63.86Q46.43 65.77 50.09 65.77L50.09 65.77Q53.83 65.77 57.06 63.90Q60.28 62.03 62.28 58.42Q64.28 54.80 64.28 49.96L64.28 49.96Z" fill="#fff"></path></svg>